####
#
# OBJ File Generated by Meshlab
#
####
# Object m1185.obj
#
# Vertices: 152
# Faces: 273
#
####
vn 0.846591 0.685755 -0.189957
v -0.001679 0.025493 -0.501511
vn 0.531255 0.966097 -0.086512
v 0.009913 0.034450 -0.363641
vn 0.889787 0.624962 -0.201898
v 0.023693 0.010335 -0.363560
vn 1.050645 0.287151 -0.191699
v 0.029205 -0.000000 -0.363528
vn 1.057170 -0.238423 -0.220465
v 0.012789 -0.000000 -0.501426
vn 0.688501 0.856363 0.125175
v -0.000355 0.026182 0.328752
vn 0.820908 0.735422 0.091237
v 0.002564 0.028249 0.301210
vn -0.761170 0.801298 0.040011
v -0.016039 0.030316 0.301101
vn 0.132372 1.095486 0.073815
v -0.014206 0.028096 0.327906
vn -0.148022 1.094478 -0.057153
v -0.019024 0.037895 -0.363811
vn -0.207276 1.086008 -0.026117
v -0.019712 0.041340 -0.246684
vn 0.498467 0.986852 -0.026735
v 0.018182 0.036517 -0.246461
vn -0.709772 0.848088 -0.005468
v -0.019975 0.041340 -0.201899
vn 0.497898 0.987485 -0.005515
v 0.019525 0.036517 -0.123121
vn 0.125515 -1.096286 0.073908
v -0.016201 -0.028249 0.328659
vn 1.049604 -0.346922 0.032178
v -0.016039 -0.030316 0.301101
vn 0.664294 -0.880031 0.085551
v 0.002564 -0.028249 0.301210
vn 0.841818 -0.705182 0.130846
v -0.000355 -0.026182 0.328752
vn 0.758788 0.802672 0.054946
v 0.014652 0.033072 0.120071
vn 0.701992 0.851371 0.073716
v 0.009379 0.031005 0.196520
vn 0.897379 0.641649 0.077822
v 0.026568 -0.000000 0.202822
vn 1.080053 -0.213539 0.104620
v 0.033221 -0.000000 0.125693
vn 1.081114 0.175850 0.152738
v 0.014803 -0.000000 0.328841
vn 1.055893 -0.304539 0.124117
v 0.018410 -0.000000 0.301303
vn 0.953216 -0.253630 0.500112
v -0.016343 -0.026870 0.352774
vn -1.105901 0.000000 -0.006495
v -0.016378 -0.083664 0.358778
vn 1.105901 -0.000000 0.006495
v -0.016326 -0.088708 0.349846
vn 1.105901 -0.000000 0.006495
v -0.016232 -0.078546 0.334000
vn 0.971370 -0.528166 0.023271
v -0.021837 -0.037895 0.115034
vn -1.092852 -0.169512 0.000565
v -0.021978 -0.037206 0.139148
vn -1.105901 0.000000 -0.006495
v -0.021978 -0.234259 0.139148
vn 1.105901 -0.000000 0.006495
v -0.021796 -0.234259 0.108144
vn -1.105901 0.000000 -0.006495
v -0.021264 -0.124708 0.017542
vn -1.105901 0.000000 -0.006495
v -0.021352 -0.083139 0.032585
vn 0.605587 0.924133 0.047993
v 0.022118 -0.000000 0.256539
vn 0.702740 -0.851210 0.068250
v 0.006369 -0.029627 0.239910
vn 0.148951 -1.094993 0.043180
v -0.015331 -0.034450 0.180528
vn 0.142705 -1.096291 0.029009
v -0.014951 -0.037206 0.115763
vn 0.577097 -0.941700 0.056753
v 0.014652 -0.033072 0.120071
vn 0.696439 -0.856011 0.072650
v 0.009379 -0.031004 0.196520
vn 0.093820 -1.099321 0.075840
v 0.042108 -0.008957 0.020326
vn 0.975857 0.400999 0.331605
v 0.057336 -0.000000 0.125834
vn 0.827603 -0.731022 0.061156
v 0.033107 -0.008268 0.027852
vn 0.582005 -0.939263 0.045985
v 0.055929 -0.006890 0.013517
vn 0.593512 -0.933140 -0.007341
v 0.019525 -0.036517 -0.123121
vn 0.455658 -1.007296 -0.028101
v 0.018182 -0.036517 -0.246461
vn 0.640912 -0.901226 -0.009114
v 0.026450 -0.021359 -0.246413
vn 0.595585 -0.931722 0.015236
v 0.031765 -0.015847 -0.095488
vn 0.148571 -1.095219 0.038497
v -0.015602 -0.033072 0.226690
vn 0.963250 -0.543311 0.004739
v -0.019975 -0.041340 -0.201899
vn 0.589439 -0.935718 0.007319
v -0.020906 -0.041340 -0.043433
vn 1.105901 -0.000000 0.006495
v -0.020555 -0.102660 -0.103202
vn -0.000000 -1.105920 0.000000
v 0.058502 -0.000000 0.191297
vn 1.095570 0.148566 0.026724
v 0.060083 -0.000000 0.010097
vn 0.557621 -0.955038 0.004586
v 0.047808 -0.017914 -0.246287
vn 0.639125 -0.902435 0.013811
v 0.053695 -0.011024 -0.075378
vn 1.105016 -0.038659 -0.022465
v 0.059521 -0.000000 -0.246219
vn 1.078578 0.244172 -0.010484
v 0.061253 -0.000000 -0.071889
vn 0.733401 -0.826636 0.043082
v 0.017107 -0.034450 0.053941
vn 0.775811 0.785386 0.065921
v 0.033107 0.008268 0.027852
vn 0.553343 0.956742 0.038942
v 0.017107 0.034450 0.053941
vn -0.162180 -1.093788 -0.019628
v -0.019800 -0.041340 -0.231756
vn 0.669430 0.880297 -0.000390
v 0.047808 0.017914 -0.246288
vn 0.401504 1.030132 0.026128
v 0.053695 0.011024 -0.075378
vn 0.435663 1.016484 0.004286
v 0.026450 0.021359 -0.246413
vn 0.774371 0.789555 0.003424
v 0.031765 0.015847 -0.095488
vn 0.431505 1.017015 0.050449
v 0.055929 0.006890 0.013517
vn 0.580172 -0.937941 -0.082025
v 0.009913 -0.034450 -0.363641
vn -0.184830 -1.088943 -0.055686
v -0.019024 -0.037895 -0.363811
vn 0.889895 -0.625063 -0.201104
v 0.023693 -0.010335 -0.363560
vn 0.501260 -0.966899 -0.192105
v -0.001679 -0.025493 -0.501511
vn -0.901818 0.572089 0.287227
v -0.016343 0.026871 0.352774
vn 1.105901 -0.000000 0.006495
v -0.016378 0.083664 0.358778
vn -1.105901 0.000000 -0.006495
v -0.016325 0.088708 0.349846
vn -1.105901 0.000000 -0.006495
v -0.016232 0.078546 0.334000
vn -1.093942 0.162293 -0.003565
v -0.021837 0.037895 0.115034
vn 1.063961 0.301212 0.017829
v -0.021978 0.037206 0.139148
vn 1.105901 -0.000000 0.006495
v -0.021978 0.234259 0.139148
vn -1.105901 0.000000 -0.006495
v -0.021796 0.234259 0.108144
vn 1.105901 -0.000000 0.006495
v -0.021264 0.124709 0.017542
vn 1.105901 -0.000000 0.006495
v -0.021352 0.083139 0.032585
vn -0.995838 0.481005 -0.001049
v -0.020906 0.041340 -0.043433
vn -1.105901 0.000000 -0.006495
v -0.020555 0.102661 -0.103202
vn 0.717918 0.838387 0.068990
v 0.006369 0.029627 0.239910
vn 0.141272 1.096273 0.035884
v -0.014951 0.037206 0.115763
vn 0.132563 1.097032 0.044808
v -0.011568 0.033933 0.185028
vn 0.124465 1.098061 0.042788
v -0.015602 0.033072 0.226690
vn 0.112542 1.097710 0.073674
v 0.042108 0.008957 0.020326
vn -0.000000 -1.105920 0.000000
v 0.019444 -0.000000 0.320831
vn 0.000000 1.105920 -0.000000
v 0.141618 -0.000000 0.439828
vn -0.000000 -1.105920 0.000000
v 0.085752 -0.000000 0.302904
vn 0.537780 -0.034722 0.965736
v 0.011217 -0.000000 0.352936
vn -0.000000 -1.105920 0.000000
v 0.015508 -0.000000 0.355545
vn -0.335082 -1.053052 0.043144
v -0.022929 -0.031004 0.301060
vn 0.722274 0.831861 -0.096883
v 0.020678 0.021359 -0.319482
vn 0.722274 -0.831862 -0.096883
v 0.020678 -0.021359 -0.319482
vn -0.375325 1.039496 0.040491
v -0.022929 0.031005 0.301060
vn 0.726512 -0.832625 0.044450
v 0.033524 -0.013780 -0.043114
vn 0.466964 -1.001876 0.035332
v 0.054882 -0.009646 -0.042988
vn 0.570450 -0.947318 0.015341
v 0.020433 -0.036517 -0.043190
vn 0.556986 0.954807 0.034203
v 0.054882 0.009646 -0.042988
vn 1.105861 0.001127 0.011444
v 0.061772 -0.000000 -0.042948
vn 0.547945 0.959634 0.043798
v 0.033524 0.013780 -0.043114
vn 0.640083 0.901602 0.021635
v 0.020433 0.036517 -0.043190
vn -0.045952 1.097472 -0.128465
v -0.018215 0.027560 -0.501608
vn -0.000000 -1.105920 0.000000
v 0.079611 -0.000000 0.256800
vn -0.304118 -1.056042 -0.123887
v -0.018215 -0.027560 -0.501608
vn 1.061520 -0.144956 -0.274267
v 0.056501 -0.000000 -0.318582
vn 0.475968 -0.988544 -0.138907
v 0.044793 -0.017225 -0.319340
vn 0.576732 0.935678 -0.122254
v 0.044793 0.017225 -0.319340
vn 0.006495 -0.000000 -1.105901
v -0.017871 -0.000000 -0.560172
vn 0.628403 0.624485 -0.661957
v -0.007880 0.010335 -0.501547
vn 0.980423 -0.000001 -0.511694
v -0.000990 -0.000000 -0.501507
vn 0.628387 -0.624509 -0.661950
v -0.007880 -0.010335 -0.501547
vn 0.004324 0.825236 -0.736225
v -0.018215 0.017225 -0.501608
vn -0.706118 0.708843 -0.471169
v -0.028550 0.010335 -0.501669
vn -0.706100 -0.708867 -0.471158
v -0.028550 -0.010335 -0.501669
vn -0.826577 0.000000 -0.734731
v -0.035440 -0.000000 -0.501709
vn 0.004323 -0.825231 -0.736230
v -0.018215 -0.017225 -0.501608
vn -1.095402 0.060095 0.139799
v -0.054095 -0.000000 0.328437
vn -0.388571 -0.053999 1.034000
v -0.050792 -0.000000 0.352571
vn -0.488754 0.364245 0.922770
v -0.042524 0.019292 0.352620
vn -0.698726 0.851633 0.097788
v -0.045827 0.019981 0.328485
vn -0.273340 0.796110 0.717324
v -0.023233 0.027560 0.352733
vn -0.270752 1.070247 0.065767
v -0.023091 0.028938 0.328619
vn 0.704492 0.725231 0.448098
v -0.003251 0.025493 0.352851
vn 0.310249 -0.473735 0.949937
v -0.003251 -0.025493 0.352851
vn -0.735581 -0.818929 0.106469
v -0.045827 -0.019981 0.328485
vn -0.597540 -0.819448 0.441032
v -0.042524 -0.019291 0.352620
vn -0.224231 -1.071888 0.154390
v -0.023233 -0.027560 0.352733
vn -0.295915 -1.062944 0.075124
v -0.023091 -0.028938 0.328619
vn -1.089511 0.189212 0.015014
v -0.059690 -0.000000 0.107921
vn -1.039976 -0.375562 0.021506
v -0.057378 -0.000000 0.300858
vn -0.854094 0.701754 0.033540
v -0.049110 0.019981 0.300907
vn -0.785657 0.777961 0.024063
v -0.048687 0.026871 0.111431
vn -0.881983 -0.639082 -0.191679
v -0.037507 -0.019291 -0.501721
vn -0.768242 -0.793504 -0.056711
v -0.050029 -0.024804 -0.363993
vn -1.100317 -0.081941 -0.075157
v -0.060363 -0.000000 -0.364054
vn -1.079356 0.176137 -0.164394
v -0.045775 -0.000000 -0.501770
vn -0.746477 -0.815917 -0.010590
v -0.048650 -0.028938 -0.246854
vn -1.102081 0.091884 -0.005849
v -0.061051 -0.000000 -0.246927
vn -1.105519 -0.029592 0.003543
v -0.062245 -0.000000 -0.043676
vn -0.850989 0.706310 0.001806
v -0.049843 0.028938 -0.043603
vn -0.761268 0.802151 -0.009185
v -0.048650 0.028938 -0.246854
vn -0.000000 -1.105920 0.000000
v -0.077016 -0.000000 0.125045
vn 0.000000 1.105920 -0.000000
v -0.084169 -0.000000 0.169789
vn 0.000000 1.105920 -0.000000
v -0.064248 -0.000000 0.297373
vn -0.833461 -0.726882 0.006734
v -0.049843 -0.028938 -0.043603
vn -0.795528 0.766118 -0.057070
v -0.050029 0.024804 -0.363993
vn -0.622369 0.898067 -0.170860
v -0.037507 0.019292 -0.501721
vn -0.655486 -0.889851 0.039545
v -0.049110 -0.019981 0.300907
vn -0.833934 -0.726085 0.020335
v -0.048687 -0.026870 0.111431
# 152 vertices, 0 vertices normals

f 1//1 2//2 3//3
f 6//6 7//7 8//8
f 10//10 11//11 12//12
f 12//12 13//13 14//14
f 15//15 16//16 17//17
f 22//22 20//20 21//21
f 7//7 6//6 23//23
f 37//37 30//30 39//39
f 41//41 42//42 22//22
f 44//44 42//42 41//41
f 45//45 46//46 47//47
f 49//49 36//36 17//17
f 53//53 21//21 22//22
f 44//44 54//54 42//42
f 55//55 56//56 48//48
f 57//57 58//58 56//56
f 22//22 39//39 59//59
f 24//24 23//23 18//18
f 60//60 61//61 19//19
f 46//46 45//45 50//50
f 63//63 64//64 58//58
f 65//65 66//66 64//64
f 42//42 54//54 67//67
f 68//68 46//46 62//62
f 5//5 4//4 70//70
f 35//35 7//7 24//24
f 20//20 19//19 85//85
f 8//8 7//7 84//84
f 60//60 22//22 42//42
f 66//66 65//65 12//12
f 88//88 42//42 67//67
f 76//76 85//85 61//61
f 85//85 19//19 61//61
f 38//38 39//39 30//30
f 95//95 2//2 12//12
f 95//95 3//3 2//2
f 96//96 46//46 68//68
f 68//68 70//70 96//96
f 59//59 38//38 29//29
f 59//59 39//39 38//38
f 91//91 90//90 89//89
f 89//89 93//93 92//92
f 77//77 86//86 85//85
f 77//77 97//97 87//87
f 98//98 41//41 43//43
f 99//99 44//44 41//41
f 48//48 100//100 45//45
f 64//64 101//101 102//102
f 54//54 102//102 101//101
f 64//64 103//103 101//101
f 60//60 103//103 104//104
f 105//105 10//10 2//2
f 20//20 84//84 35//35
f 84//84 20//20 86//86
f 35//35 106//106 91//91
f 59//59 100//100 98//98
f 60//60 88//88 103//103
f 71//71 68//68 69//69
f 103//103 88//88 67//67
f 44//44 99//99 102//102
f 100//100 59//59 29//29
f 58//58 102//102 99//99
f 66//66 14//14 104//104
f 56//56 99//99 98//98
f 45//45 100//100 51//51
f 70//70 4//4 108//108
f 108//108 109//109 70//70
f 3//3 95//95 110//110
f 108//108 4//4 3//3
f 3//3 110//110 108//108
f 108//108 57//57 55//55
f 109//109 55//55 47//47
f 110//110 65//65 63//63
f 110//110 63//63 57//57
f 109//109 96//96 70//70
f 111//111 112//112 113//113
f 113//113 114//114 111//111
f 111//111 115//115 112//112
f 111//111 116//116 115//115
f 117//117 118//118 111//111
f 114//114 119//119 111//111
f 119//119 117//117 111//111
f 111//111 118//118 116//116
f 120//120 121//121 122//122
f 123//123 122//122 124//124
f 125//125 124//124 72//72
f 72//72 126//126 6//6
f 6//6 126//126 92//92
f 18//18 92//92 127//127
f 128//128 129//129 121//121
f 15//15 25//25 130//130
f 131//131 130//130 129//129
f 15//15 18//18 127//127
f 132//132 133//133 134//134
f 136//136 137//137 138//138
f 107//107 69//69 137//137
f 69//69 62//62 140//140
f 137//137 140//140 141//141
f 134//134 120//120 123//123
f 135//135 134//134 97//97
f 142//142 132//132 135//135
f 143//143 135//135 76//76
f 141//141 142//142 143//143
f 132//132 145//145 146//146
f 144//144 143//143 82//82
f 149//149 141//141 144//144
f 149//149 144//144 11//11
f 139//139 138//138 149//149
f 150//150 149//149 10//10
f 133//133 147//147 146//146
f 151//151 128//128 120//120
f 94//94 131//131 128//128
f 152//152 151//151 133//133
f 148//148 152//152 132//132
f 140//140 148//148 142//142
f 134//134 123//123 125//125
f 8//8 125//125 9//9
f 16//16 15//15 131//131
f 92//92 126//126 72//72
f 25//25 129//129 130//130
f 150//150 118//118 139//139
f 115//115 116//116 150//150
f 1//1 115//115 105//105
f 5//5 113//113 112//112
f 136//136 139//139 118//118
f 119//119 136//136 117//117
f 71//71 107//107 119//119
f 5//5 114//114 113//113
f 25//25 26//26 27//27
f 28//28 27//27 26//26
f 29//29 30//30 31//31
f 31//31 33//33 32//32
f 50//50 51//51 52//52
f 72//72 73//73 74//74
f 75//75 74//74 73//73
f 76//76 77//77 78//78
f 78//78 80//80 79//79
f 13//13 82//82 83//83
f 87//87 8//8 74//74
f 74//74 8//8 87//87
f 8//8 72//72 75//75
f 82//82 76//76 81//81
f 81//81 76//76 82//82
f 51//51 29//29 34//34
f 34//34 29//29 51//51
f 49//49 16//16 27//27
f 27//27 16//16 49//49
f 16//16 25//25 28//28
f 1//1 3//3 4//4
f 1//1 4//4 5//5
f 6//6 8//8 9//9
f 10//10 12//12 2//2
f 11//11 13//13 12//12
f 15//15 17//17 18//18
f 19//19 20//20 22//22
f 7//7 23//23 24//24
f 35//35 17//17 36//36
f 37//37 39//39 40//40
f 41//41 22//22 43//43
f 45//45 47//47 48//48
f 55//55 48//48 47//47
f 57//57 56//56 55//55
f 22//22 59//59 43//43
f 24//24 18//18 17//17
f 60//60 19//19 22//22
f 22//22 40//40 39//39
f 46//46 50//50 62//62
f 63//63 58//58 57//57
f 65//65 64//64 63//63
f 68//68 62//62 69//69
f 5//5 70//70 68//68
f 5//5 68//68 71//71
f 84//84 7//7 35//35
f 20//20 85//85 86//86
f 60//60 42//42 88//88
f 66//66 12//12 14//14
f 35//35 89//89 90//90
f 35//35 90//90 91//91
f 23//23 93//93 89//89
f 37//37 94//94 30//30
f 95//95 12//12 65//65
f 47//47 46//46 96//96
f 91//91 89//89 24//24
f 99//99 41//41 98//98
f 98//98 100//100 48//48
f 64//64 102//102 58//58
f 54//54 101//101 67//67
f 66//66 103//103 64//64
f 13//13 104//104 14//14
f 60//60 104//104 61//61
f 105//105 2//2 1//1
f 21//21 91//91 106//106
f 21//21 106//106 53//53
f 82//82 61//61 104//104
f 49//49 40//40 36//36
f 53//53 106//106 35//35
f 21//21 36//36 40//40
f 59//59 98//98 43//43
f 71//71 69//69 107//107
f 103//103 67//67 101//101
f 44//44 102//102 54//54
f 58//58 99//99 56//56
f 66//66 104//104 103//103
f 56//56 98//98 48//48
f 108//108 55//55 109//109
f 109//109 47//47 96//96
f 95//95 65//65 110//110
f 110//110 57//57 108//108
f 120//120 122//122 123//123
f 123//123 124//124 125//125
f 125//125 72//72 9//9
f 72//72 6//6 9//9
f 6//6 92//92 23//23
f 23//23 92//92 18//18
f 128//128 121//121 120//120
f 15//15 130//130 131//131
f 131//131 129//129 128//128
f 15//15 127//127 25//25
f 132//132 134//134 135//135
f 136//136 138//138 139//139
f 107//107 137//137 136//136
f 69//69 140//140 137//137
f 137//137 141//141 138//138
f 133//133 120//120 134//134
f 135//135 97//97 77//77
f 142//142 135//135 143//143
f 141//141 143//143 144//144
f 132//132 146//146 147//147
f 140//140 51//51 148//148
f 62//62 51//51 140//140
f 144//144 13//13 11//11
f 138//138 141//141 149//149
f 149//149 11//11 10//10
f 139//139 149//149 150//150
f 150//150 10//10 105//105
f 133//133 146//146 145//145
f 151//151 120//120 133//133
f 94//94 128//128 151//151
f 152//152 133//133 132//132
f 29//29 94//94 151//151
f 29//29 151//151 152//152
f 148//148 132//132 142//142
f 51//51 152//152 148//148
f 140//140 142//142 141//141
f 134//134 125//125 97//97
f 97//97 125//125 8//8
f 16//16 131//131 94//94
f 92//92 72//72 124//124
f 92//92 124//124 122//122
f 92//92 122//122 121//121
f 121//121 129//129 25//25
f 121//121 25//25 127//127
f 121//121 127//127 92//92
f 116//116 118//118 150//150
f 115//115 150//150 105//105
f 112//112 115//115 1//1
f 5//5 112//112 1//1
f 136//136 118//118 117//117
f 107//107 136//136 119//119
f 71//71 119//119 114//114
f 71//71 114//114 5//5
f 28//28 26//26 25//25
f 29//29 31//31 32//32
f 29//29 32//32 33//33
f 30//30 33//33 31//31
f 34//34 33//33 30//30
f 75//75 73//73 72//72
f 76//76 78//78 79//79
f 76//76 79//79 80//80
f 77//77 80//80 78//78
f 81//81 80//80 77//77
f 82//82 80//80 83//83
f 51//51 33//33 52//52
# 273 faces, 0 coords texture

# End of File
