####
#
# OBJ File Generated by Meshlab
#
####
# Object m924.obj
#
# Vertices: 223
# Faces: 207
#
####
vn 0.000000 0.000000 0.000000
v -0.085549 -0.175971 -0.187430
vn 0.000000 0.000000 0.000000
v -0.113881 -0.044616 -0.033238
vn 0.000000 -1.107629 0.000000
v -0.108114 -0.197276 0.191053
vn 0.000000 0.000000 0.000000
v -0.080603 -0.182861 0.190956
vn -0.476551 -0.999799 -0.011975
v -0.097796 0.169189 -0.086341
vn -0.476551 -0.999799 -0.011975
v -0.120059 0.180928 -0.180480
vn -0.476551 -0.999799 -0.011975
v -0.109340 0.172422 0.103156
vn 0.476551 0.999799 0.011975
v -0.095323 0.165745 0.102852
vn -0.024992 0.797197 -0.768567
v -0.113311 -0.186437 -0.201151
vn 0.363692 -0.923673 -0.491324
v -0.085675 -0.173965 -0.194307
vn -0.345598 1.052067 0.023673
v -0.085836 -0.168842 -0.199309
vn -0.369969 1.043742 0.023840
v -0.113636 -0.176064 -0.211089
vn 0.480485 0.027466 -0.997608
v -0.094469 -0.082959 -0.202971
vn 0.480485 0.027466 -0.997608
v -0.108445 -0.083098 -0.209707
vn 0.480485 0.027466 -0.997608
v -0.097444 0.074927 -0.200057
vn 0.480485 0.027466 -0.997608
v -0.111421 0.074788 -0.206793
vn 0.000000 0.000000 0.000000
v -0.114523 0.170161 -0.198319
vn 0.000000 0.000000 0.000000
v -0.120111 0.167480 -0.204749
vn -0.996907 -0.009883 -0.482620
v -0.092079 0.165819 -0.188036
vn 0.000000 0.000000 0.000000
v -0.120170 0.177483 -0.194435
vn 0.000000 0.000000 0.000000
v -0.108003 -0.193831 0.204946
vn 0.020869 -1.107244 -0.020433
v -0.080548 -0.181107 0.197902
vn 0.757339 0.221499 -0.777315
v -0.080576 -0.176168 0.203090
vn 0.000000 0.000000 0.000000
v -0.108062 -0.183828 0.215322
vn 0.508164 -0.008584 0.984144
v -0.089070 -0.090480 0.210053
vn 0.508164 -0.008584 0.984144
v -0.108275 -0.170010 0.219276
vn 0.508164 -0.008584 0.984144
v -0.090558 -0.011536 0.211510
vn 0.000000 0.000000 0.000000
v -0.114179 0.033520 0.060539
vn -0.235757 -0.364178 1.019135
v -0.086791 0.153553 0.209174
vn -0.793242 -0.000685 -0.773052
v -0.114537 0.159716 0.221662
vn 0.020869 -1.107244 -0.020433
v -0.086952 0.158677 0.204173
vn -0.025369 0.949627 -0.569568
v -0.114862 0.170089 0.211661
vn 0.000000 0.000000 0.000000
v -0.146741 0.419056 0.263508
vn 0.000000 0.000000 0.000000
v -0.149245 0.470250 0.143438
vn -1.107601 0.000000 -0.007911
v -0.151270 0.490606 0.014854
vn 0.007610 -0.862304 -0.695138
v -0.130715 0.357979 0.339448
vn 0.020869 -1.107244 -0.020433
v -0.140903 0.232858 0.443019
vn -0.005582 -0.396969 -1.034035
v -0.124827 0.141732 0.477916
vn 0.983960 0.027917 -0.507825
v -0.135318 -0.018229 0.505415
vn 0.000000 0.000000 0.000000
v -0.133123 -0.146867 0.485025
vn 0.000000 0.000000 0.000000
v -0.109922 -0.218448 0.454006
vn 0.000000 0.000000 0.000000
v -0.130589 -0.368374 0.351975
vn -0.025367 0.889968 -0.658905
v -0.116592 -0.426671 0.272695
vn 0.768250 0.797881 0.004485
v -0.131087 -0.493203 0.125659
vn 0.000000 0.000000 0.000000
v -0.132432 -0.508864 -0.003590
vn 0.000000 0.000000 0.000000
v -0.134457 -0.488509 -0.132175
vn 0.013918 -1.018886 -0.434188
v -0.122448 -0.449894 -0.222405
vn 0.643013 -0.615427 -0.659262
v -0.139814 -0.355525 -0.353734
vn 0.508164 -0.008584 0.984144
v -0.142818 -0.250145 -0.431800
vn 0.981100 0.514074 -0.003465
v -0.145718 -0.129323 -0.478522
vn -0.011450 -0.133153 -1.099537
v -0.133831 -0.032088 -0.490421
vn 0.242436 0.284970 -1.042526
v -0.150578 0.128547 -0.473763
vn -0.021244 0.433897 -1.018884
v -0.137922 0.218866 -0.435564
vn -0.024234 0.695183 -0.861961
v -0.139003 0.325007 -0.361359
vn 0.504657 -0.961660 0.217659
v -0.153274 0.428156 -0.236273
vn -0.024776 1.033834 -0.396758
v -0.138894 0.463513 -0.145041
vn 0.000000 0.000000 0.000000
v -0.107545 -0.017699 0.505062
vn 0.000000 0.000000 0.000000
v -0.105350 -0.146337 0.484672
vn 0.000000 0.000000 0.000000
v -0.103712 -0.266345 0.433444
vn -0.025367 0.889968 -0.658905
v -0.109685 -0.407018 0.298975
vn -0.025367 0.889968 -0.658905
v -0.109648 -0.426539 0.272607
vn -0.016170 1.060431 0.319480
v -0.103314 -0.492673 0.125305
vn -0.022503 1.101195 -0.117075
v -0.104660 -0.508334 -0.003944
vn 0.013918 -1.018886 -0.434188
v -0.114879 -0.462545 -0.192475
vn 0.013918 -1.018886 -0.434188
v -0.115505 -0.449762 -0.222493
vn -0.004521 0.768683 0.797464
v -0.112041 -0.354995 -0.354087
vn 0.016158 -0.112044 1.101829
v -0.115045 -0.249616 -0.432154
vn -0.011450 -0.133153 -1.099537
v -0.126222 -0.064279 -0.486602
vn -0.011450 -0.133153 -1.099537
v -0.126888 -0.031955 -0.490509
vn -0.021244 0.433897 -1.018884
v -0.130569 0.188980 -0.448445
vn -0.022957 0.569902 -0.949488
v -0.124446 0.249148 -0.422949
vn -0.024234 0.695183 -0.861961
v -0.132060 0.325139 -0.361448
vn -0.024776 1.033834 -0.396758
v -0.132115 0.451948 -0.175599
vn -0.024776 1.033834 -0.396758
v -0.124843 0.475475 -0.114749
vn 0.000000 0.000000 0.000000
v -0.135145 0.484660 -0.037058
vn 0.000000 0.000000 0.000000
v -0.121473 0.470780 0.143085
vn 0.007610 -0.862304 -0.695138
v -0.118968 0.419586 0.263155
vn 0.007610 -0.862304 -0.695138
v -0.123772 0.358111 0.339360
vn -0.005582 -0.396969 -1.034035
v -0.118614 0.172328 0.466137
vn -0.005582 -0.396969 -1.034035
v -0.117884 0.141864 0.477828
vn 0.617145 -0.378293 -0.838373
v 0.159550 0.158611 -0.191475
vn 1.107421 0.020957 -0.004618
v 0.159540 0.160258 -0.186211
vn 0.123611 0.793519 -0.762818
v 0.159450 0.165456 -0.184370
vn -0.313863 0.763950 -0.738046
v 0.150354 0.165283 -0.184255
vn -0.019457 0.043631 -1.106599
v 0.150395 0.158436 -0.191358
vn 0.014475 -0.020162 1.107351
v 0.099840 0.078371 -0.185177
vn 0.757648 0.665024 -0.458863
v -0.058120 0.161304 -0.181602
vn 0.007011 0.050183 -1.106470
v -0.058079 0.154457 -0.188646
vn 0.683113 -0.853060 0.180246
v -0.057988 0.154331 -0.181731
vn -0.620848 -0.334107 -0.854262
v -0.067296 0.154281 -0.188528
vn -0.737962 -0.693142 0.449232
v -0.067205 0.154155 -0.181613
vn -0.740773 0.708880 0.419031
v -0.067337 0.161129 -0.181485
vn 0.602780 0.411205 -0.833312
v 0.165501 -0.157163 -0.197302
vn 1.107421 0.020957 -0.004618
v 0.165558 -0.159002 -0.192102
vn 0.152893 -0.759564 -0.791536
v 0.165664 -0.164265 -0.190455
vn -0.523865 -0.685806 -0.694318
v 0.156569 -0.164438 -0.190339
vn -0.607078 -0.439315 -0.815661
v 0.156346 -0.157337 -0.197186
vn -0.378737 -0.286910 1.000542
v 0.156437 -0.157464 -0.190211
vn 0.781880 -0.618570 -0.482575
v -0.051905 -0.168417 -0.187687
vn 0.613128 -0.402070 -0.830215
v -0.052127 -0.161316 -0.194473
vn 0.855765 0.496053 0.498437
v -0.052037 -0.161442 -0.187558
vn -0.557380 0.330225 -0.898399
v -0.061344 -0.161492 -0.194356
vn -0.006745 0.837096 0.725305
v -0.061254 -0.161618 -0.187441
vn -0.821655 -0.587981 0.453877
v -0.061122 -0.168592 -0.187569
vn 0.640212 -0.404753 0.808174
v 0.164677 0.151470 0.200735
vn 0.744475 -0.690615 -0.442325
v 0.164526 0.151595 0.193823
vn 0.830086 0.587844 -0.438452
v 0.164395 0.158568 0.193952
vn -0.949881 -0.017105 0.569452
v 0.155300 0.158394 0.194068
vn 0.005026 0.003225 1.107613
v 0.155521 0.151295 0.200852
vn -0.014475 0.020162 -1.107351
v 0.104785 0.071483 0.193145
vn 0.807181 0.572598 0.497427
v -0.053174 0.154416 0.196720
vn 0.036062 0.009539 1.107001
v -0.052953 0.147317 0.203504
vn 0.548710 -0.670483 -0.690081
v -0.053043 0.147443 0.196592
vn -0.598305 -0.365480 0.857495
v -0.062170 0.147141 0.203622
vn -0.712266 -0.722787 -0.443957
v -0.062260 0.147267 0.196709
vn -0.426960 1.005634 -0.182341
v -0.062391 0.154240 0.196838
vn 0.630606 0.376562 0.829084
v 0.170628 -0.164304 0.194908
vn 0.916093 0.317288 -0.535672
v 0.170478 -0.164179 0.187996
vn 0.747222 -0.710221 -0.405078
v 0.170610 -0.171153 0.187867
vn -0.949455 -0.039701 0.569035
v 0.161514 -0.171327 0.187983
vn -0.582828 -0.466857 0.818046
v 0.161473 -0.164478 0.195024
vn -1.032255 -0.212440 -0.340826
v 0.161383 -0.164353 0.188112
vn 0.828554 -0.559679 0.476551
v -0.046960 -0.175305 0.190636
vn 0.632923 -0.430611 0.800516
v -0.047001 -0.168457 0.197677
vn 0.756807 0.066251 -0.806038
v -0.047091 -0.168331 0.190764
vn -0.509613 0.280170 0.942678
v -0.056218 -0.168632 0.197794
vn -0.723014 0.684895 -0.484781
v -0.056308 -0.168507 0.190882
vn -0.388954 -1.013568 -0.219629
v -0.056177 -0.175481 0.190753
vn 0.839817 0.535138 0.484951
v 0.052894 0.159932 0.006146
vn 0.391397 1.006068 0.247947
v 0.159388 0.165455 -0.184370
vn 0.676384 -0.802149 0.354829
v 0.159519 0.158482 -0.184498
vn 0.670581 -0.808505 0.351401
v 0.053025 0.152959 0.006018
vn 0.368018 1.018082 0.234339
v 0.048630 0.159710 0.013843
vn 0.652136 -0.828618 0.339047
v 0.048762 0.152736 0.013714
vn -0.857663 0.525298 -0.464024
v 0.044102 0.159764 0.006258
vn -0.635838 -0.823879 -0.379179
v 0.044233 0.152791 0.006130
vn -0.858492 0.523599 -0.464412
v 0.150595 0.165287 -0.184258
vn -0.415705 1.006379 -0.203062
v 0.048431 0.159987 -0.001378
vn -0.631179 -0.828622 -0.376618
v 0.048563 0.153014 -0.001507
vn -0.637376 -0.822358 -0.379898
v 0.150727 0.158314 -0.184386
vn -0.020869 1.107244 0.020433
v 0.104370 0.159168 0.100119
vn -0.923159 0.611622 0.023204
v 0.102746 0.071412 0.194900
vn 0.859744 -0.520583 0.465485
v 0.059108 -0.169789 0.000062
vn 0.429239 -0.999043 0.210973
v 0.165602 -0.164266 -0.190454
vn 0.645989 0.813369 0.384672
v 0.165471 -0.157292 -0.190326
vn 0.639949 0.819624 0.381477
v 0.058977 -0.162815 0.000190
vn 0.406319 -1.011421 0.196914
v 0.054845 -0.170011 0.007758
vn 0.620751 0.839472 0.369861
v 0.054713 -0.163037 0.007887
vn -0.837620 -0.539699 -0.483694
v 0.050316 -0.169957 0.000174
vn -0.666738 0.812710 -0.349007
v 0.050185 -0.162983 0.000302
vn -0.838512 -0.538019 -0.484020
v 0.156810 -0.164434 -0.190342
vn -0.377692 -1.013124 -0.240357
v 0.054646 -0.169734 -0.007463
vn -0.662259 0.817529 -0.346270
v 0.054514 -0.162760 -0.007334
vn -0.668217 0.811160 -0.349783
v 0.156678 -0.157460 -0.190214
vn 0.020869 -1.107244 -0.020433
v 0.052652 -0.169913 0.000176
vn -0.020869 1.107244 0.020433
v 0.110453 -0.163579 0.094163
vn -0.684981 -0.471657 -0.731563
v 0.044645 -0.001525 -0.192888
vn -0.433269 -0.337832 0.961764
v 0.044737 -0.001652 -0.185914
vn -0.632752 -0.431540 -0.800151
v 0.049195 -0.007869 -0.193063
vn -0.791108 -0.581276 0.512942
v 0.049286 -0.007996 -0.186089
vn 0.612614 0.462423 -0.798569
v 0.053499 -0.001356 -0.193001
vn 0.798216 0.559273 0.526220
v 0.165592 -0.157290 -0.190327
vn 0.402439 0.261740 0.998187
v 0.053591 -0.001483 -0.186026
vn 0.899631 0.646147 0.000005
v -0.031569 0.117037 -0.187959
vn -0.014796 0.020377 -1.107343
v 0.013276 0.054769 -0.191433
vn 0.014475 -0.020162 1.107351
v 0.047609 0.002648 -0.185873
vn 0.899631 0.646147 0.000005
v -0.031524 0.116974 -0.184486
vn 0.860674 -0.573253 0.396817
v 0.159641 0.158484 -0.184500
vn -0.923159 0.611622 0.023204
v 0.150728 0.158400 -0.189037
vn -0.923159 0.611622 0.023204
v 0.065917 0.030418 -0.189770
vn -0.664350 -0.497554 0.733431
v 0.049772 -0.008666 0.199322
vn -0.455437 -0.300613 -0.963873
v 0.049682 -0.008540 0.192409
vn -0.608878 -0.458654 0.803584
v 0.054322 -0.015010 0.199147
vn -0.803025 -0.561428 -0.516519
v 0.054232 -0.014884 0.192234
vn 0.630633 0.431193 0.802008
v 0.058626 -0.008497 0.199209
vn 0.782804 0.577347 -0.529841
v 0.170538 -0.164178 0.187995
vn 0.373498 0.296090 -0.999836
v 0.058536 -0.008372 0.192296
vn -0.899631 -0.646147 -0.000005
v -0.026488 0.109960 0.200749
vn 0.014475 -0.020162 1.107351
v 0.052645 -0.004367 0.199362
vn -0.014475 0.020162 -1.107351
v 0.018313 0.047754 0.193844
vn -0.899631 -0.646147 -0.000005
v -0.026533 0.110023 0.197293
vn 0.849149 -0.557616 -0.441422
v 0.164586 0.151596 0.193822
vn -0.923159 0.611622 0.023204
v 0.102791 0.071349 0.198356
vn -0.297123 -0.576342 0.897992
v 0.173020 0.151697 -0.177883
vn 0.025190 -0.800448 0.765174
v -0.087539 0.146724 -0.174508
vn 0.012229 -0.982187 -0.511860
v -0.087630 0.146851 -0.181479
vn -0.626607 -0.263395 -0.874545
v 0.172930 0.151823 -0.184795
vn -0.481431 0.184512 0.980318
v 0.178711 -0.150253 -0.183455
vn -0.270749 0.445927 -0.977081
v 0.178621 -0.150127 -0.190367
vn -0.012117 0.982221 0.511799
v -0.081848 -0.155226 -0.180080
vn -0.025011 0.800510 -0.765115
v -0.081939 -0.155099 -0.187052
vn 0.424152 -0.690033 0.755508
v 0.186300 -0.157022 -0.183678
vn 0.022613 -0.522040 0.976630
v -0.081718 -0.162137 -0.180207
vn 0.004750 -0.775961 -0.790383
v -0.081809 -0.162011 -0.187179
vn 0.758958 -0.295593 -0.750633
v 0.186210 -0.156896 -0.190590
vn 0.561414 0.472429 0.829740
v 0.180349 0.158752 -0.177850
vn 0.323337 0.315226 -1.011399
v 0.180258 0.158878 -0.184762
vn 0.003612 0.486084 0.995265
v -0.087669 0.153636 -0.174380
vn -0.025032 0.804154 -0.761283
v -0.087760 0.153763 -0.181352
vn -0.323093 -0.544925 -0.908576
v 0.177784 0.145062 0.186554
vn 0.004631 -0.772179 -0.794079
v -0.082776 0.140090 0.189869
vn 0.025126 -1.001033 0.473439
v -0.082685 0.139963 0.196843
vn -0.607156 -0.296864 0.877540
v 0.177875 0.144935 0.193527
vn -0.510245 0.221132 -0.957911
v 0.183475 -0.156889 0.180981
vn -0.246905 0.411418 0.998307
v 0.183566 -0.157016 0.187955
vn -0.025126 1.001062 -0.473378
v -0.077085 -0.161861 0.184297
vn -0.004633 0.772239 0.794020
v -0.076994 -0.161988 0.191271
vn 0.406318 -0.663084 -0.788713
v 0.191064 -0.163657 0.180759
vn -0.003381 -0.486359 -0.995131
v -0.076955 -0.168772 0.184169
vn 0.025042 -0.805965 0.759365
v -0.076863 -0.168899 0.191143
vn 0.781143 -0.323503 0.715545
v 0.191155 -0.163784 0.187733
vn 0.590204 0.285205 -0.892838
v 0.185112 0.152116 0.186586
vn 0.315364 0.521111 0.925112
v 0.185204 0.151989 0.193560
vn -0.025042 0.805907 -0.759427
v -0.082906 0.147002 0.189997
vn 0.003383 0.486298 0.995161
v -0.082815 0.146875 0.196970
vn -1.107338 -0.021131 0.014090
v 0.150430 0.160084 -0.186095
vn -0.995857 0.108790 0.472521
v -0.061254 -0.161618 -0.187441
vn -0.956937 -0.028316 0.557056
v 0.155431 0.151421 0.193939
vn 0.020869 -1.107244 -0.020433
v 0.102197 0.152151 0.100020
vn 0.899631 0.646147 0.000005
v 0.022128 0.042274 -0.190037
vn 0.899631 0.646147 0.000005
v 0.022174 0.042211 -0.186565
vn -0.899631 -0.646147 -0.000005
v 0.027209 0.035196 0.198686
vn -0.899631 -0.646147 -0.000005
v 0.027164 0.035259 0.195230
# 223 vertices, 0 vertices normals

f 4//4 3//3 1//1
f 8//8 5//5 7//7
f 16//16 15//15 14//14
f 13//13 14//14 15//15
f 18//18 20//20 17//17
f 25//25 27//27 26//26
f 26//26 28//28 6//6
f 21//21 24//24 6//6
f 2//2 3//3 6//6
f 46//46 45//45 35//35
f 59//59 58//58 41//41
f 65//65 64//64 47//47
f 69//69 68//68 51//51
f 71//71 70//70 53//53
f 72//72 71//71 54//54
f 74//74 73//73 56//56
f 75//75 74//74 35//35
f 77//77 76//76 33//33
f 4//4 1//1 3//3
f 6//6 5//5 7//7
f 18//18 17//17 20//20
f 26//26 6//6 28//28
f 21//21 6//6 24//24
f 2//2 6//6 3//3
f 46//46 35//35 45//45
f 59//59 41//41 58//58
f 61//61 43//43 60//60
f 75//75 35//35 74//74
f 77//77 33//33 76//76
f 78//78 36//36 77//77
f 80//80 38//38 79//79
f 82//82 81//81 83//83
f 84//84 83//83 85//85
f 81//81 85//85 83//83
f 216//216 84//84 85//85
f 88//88 87//87 89//89
f 91//91 92//92 90//90
f 88//88 90//90 87//87
f 92//92 87//87 90//90
f 94//94 95//95 93//93
f 96//96 97//97 95//95
f 93//93 95//95 97//97
f 98//98 97//97 96//96
f 100//100 101//101 99//99
f 217//217 102//102 104//104
f 100//100 99//99 102//102
f 104//104 102//102 99//99
f 106//106 107//107 105//105
f 108//108 109//109 107//107
f 105//105 107//107 109//109
f 218//218 109//109 108//108
f 112//112 113//113 111//111
f 115//115 114//114 116//116
f 112//112 111//111 114//114
f 116//116 114//114 111//111
f 118//118 117//117 119//119
f 120//120 119//119 121//121
f 117//117 121//121 119//119
f 122//122 120//120 121//121
f 124//124 123//123 125//125
f 127//127 128//128 126//126
f 124//124 126//126 123//123
f 128//128 123//123 126//126
f 130//130 129//129 131//131
f 132//132 131//131 129//129
f 133//133 111//111 134//134
f 113//113 134//134 111//111
f 116//116 135//135 115//115
f 136//136 115//115 135//135
f 138//138 137//137 139//139
f 140//140 139//139 137//137
f 92//92 91//91 108//108
f 218//218 108//108 91//91
f 107//107 106//106 87//87
f 89//89 87//87 106//106
f 135//135 116//116 133//133
f 111//111 133//133 116//116
f 137//137 138//138 130//130
f 129//129 130//130 138//138
f 141//141 107//107 87//87
f 87//87 92//92 141//141
f 136//136 134//134 115//115
f 113//113 115//115 134//134
f 140//140 131//131 139//139
f 132//132 139//139 131//131
f 219//219 91//91 106//106
f 89//89 106//106 91//91
f 144//144 145//145 143//143
f 146//146 143//143 145//145
f 147//147 148//148 123//123
f 125//125 123//123 148//148
f 128//128 127//127 149//149
f 150//150 149//149 127//127
f 152//152 153//153 151//151
f 154//154 151//151 153//153
f 104//104 120//120 217//217
f 122//122 217//217 120//120
f 119//119 99//99 118//118
f 101//101 118//118 99//99
f 149//149 147//147 128//128
f 123//123 128//128 147//147
f 151//151 144//144 152//152
f 143//143 152//152 144//144
f 155//155 104//104 99//99
f 99//99 119//119 155//155
f 150//150 127//127 148//148
f 125//125 148//148 127//127
f 154//154 153//153 145//145
f 146//146 145//145 153//153
f 156//156 118//118 101//101
f 101//101 103//103 156//156
f 90//90 157//157 91//91
f 158//158 91//91 157//157
f 159//159 97//97 160//160
f 98//98 160//160 97//97
f 93//93 161//161 162//162
f 163//163 162//162 161//161
f 220//220 164//164 221//221
f 167//167 221//221 164//164
f 81//81 168//168 100//100
f 101//101 100//100 168//168
f 102//102 217//217 170//170
f 170//170 169//169 102//102
f 93//93 97//97 161//161
f 159//159 161//161 97//97
f 88//88 165//165 157//157
f 157//157 90//90 88//88
f 102//102 85//85 100//100
f 81//81 100//100 85//85
f 162//162 163//163 98//98
f 160//160 98//98 163//163
f 89//89 91//91 158//158
f 158//158 166//166 89//89
f 103//103 101//101 86//86
f 168//168 86//86 101//101
f 114//114 115//115 171//171
f 172//172 171//171 115//115
f 173//173 174//174 121//121
f 122//122 121//121 174//174
f 117//117 176//176 175//175
f 177//177 175//175 176//176
f 222//222 178//178 223//223
f 181//181 223//223 178//178
f 105//105 124//124 182//182
f 125//125 182//182 124//124
f 126//126 183//183 127//127
f 142//142 127//127 183//183
f 117//117 175//175 121//121
f 173//173 121//121 175//175
f 112//112 114//114 171//171
f 171//171 179//179 112//112
f 126//126 124//124 109//109
f 105//105 109//109 124//124
f 176//176 122//122 177//177
f 174//174 177//177 122//122
f 113//113 180//180 172//172
f 172//172 115//115 113//113
f 127//127 110//110 125//125
f 182//182 125//125 110//110
f 185//185 186//186 184//184
f 187//187 184//184 186//186
f 184//184 187//187 188//188
f 189//189 188//188 187//187
f 188//188 189//189 190//190
f 191//191 190//190 189//189
f 193//193 194//194 192//192
f 195//195 192//192 194//194
f 192//192 195//195 196//196
f 197//197 196//196 195//195
f 196//196 197//197 199//199
f 199//199 198//198 196//196
f 193//193 192//192 188//188
f 188//188 190//190 193//193
f 192//192 196//196 188//188
f 184//184 188//188 196//196
f 196//196 198//198 184//184
f 185//185 184//184 198//198
f 194//194 191//191 189//189
f 189//189 195//195 194//194
f 195//195 189//189 197//197
f 187//187 197//197 189//189
f 197//197 187//187 199//199
f 186//186 199//199 187//187
f 201//201 200//200 202//202
f 203//203 202//202 200//200
f 200//200 204//204 203//203
f 205//205 203//203 204//204
f 204//204 206//206 205//205
f 207//207 205//205 206//206
f 209//209 208//208 210//210
f 211//211 210//210 208//208
f 208//208 212//212 211//211
f 213//213 211//211 212//212
f 212//212 214//214 213//213
f 215//215 213//213 214//214
f 209//209 206//206 204//204
f 204//204 208//208 209//209
f 208//208 204//204 212//212
f 200//200 212//212 204//204
f 212//212 200//200 214//214
f 201//201 214//214 200//200
f 210//210 211//211 205//205
f 205//205 207//207 210//210
f 211//211 213//213 205//205
f 203//203 205//205 213//213
f 213//213 215//215 203//203
f 202//202 203//203 215//215
# 207 faces, 0 coords texture

# End of File
